<svg width="146" height="114" viewBox="0 0 146 114" fill="none" xmlns="http://www.w3.org/2000/svg">
<path d="M35.9 3.24999C6.05 3.24999 0.95 11.5 0.95 19.9C0.95 29.95 8.45 43.9 8.45 64.15C8.45 79.9 1.7 91.3 1.7 99.85C1.7 108.7 10.4 112.9 17 112.9C30.65 112.9 34.55 105.25 34.55 100C34.55 92.2 28.1 83.35 28.1 75.7C28.1 70.45 31.7 65.2 39.2 65.2C45.65 65.2 51.2 68.65 51.2 78.1C51.2 82.45 44 91.15 44 99.55C44 107.05 51.05 113.65 59.9 113.65C74 113.65 82.1 102.85 82.1 90.85C82.1 67.15 59.15 64 59.15 55.9C59.15 47.35 77.6 52.45 77.6 30.1C77.6 9.85 54.05 3.24999 35.9 3.24999ZM47.3 32.8C47.3 39.55 43.1 43.75 37.4 43.75C33.05 43.75 29.15 41.05 29.15 34.15C29.15 29.35 32 25.6 37.85 25.6C42.95 25.6 47.3 28 47.3 32.8ZM117.414 73.45C117.414 81.4 115.914 88.45 109.314 88.45C95.0645 88.45 94.6145 81.25 88.0145 81.25C85.3145 81.25 83.8145 83.95 83.8145 86.65C83.8145 99.4 105.114 110.5 116.814 110.5C138.714 110.5 145.014 92.65 145.014 69.1C145.014 55.6 142.764 40.15 140.664 25.45C137.814 4.74999 128.214 0.399994 115.914 0.399994C106.614 0.399994 96.8645 4.14999 96.8645 13.3C96.8645 24.55 103.464 27.7 109.164 37.45C115.614 48.55 117.414 61.75 117.414 73.45Z" fill="#E2A5AE"/>
</svg>
